<?xml version="1.0" encoding="UTF-8"?>
<svg version="1.1" xmlns="http://www.w3.org/2000/svg" width="1024" height="1024">
<path d="M0 0 C337.92 0 675.84 0 1024 0 C1024 337.92 1024 675.84 1024 1024 C686.08 1024 348.16 1024 0 1024 C0 686.08 0 348.16 0 0 Z " fill="#FEFEFE" transform="translate(0,0)"/>
<path d="M0 0 C1.06073281 -0.00233999 1.06073281 -0.00233999 2.14289457 -0.00472724 C4.50790746 -0.00870896 6.87285591 -0.00555814 9.23786926 -0.00241089 C10.93711383 -0.00376653 12.63635809 -0.00554739 14.33560181 -0.00772095 C18.95728325 -0.01228586 23.57894239 -0.01050691 28.20062423 -0.00734186 C33.06942919 -0.0048015 37.93823231 -0.00716156 42.80703735 -0.00872803 C51.01445352 -0.01054984 59.22186071 -0.00814832 67.42927551 -0.00338745 C76.82802287 0.00200264 86.22674835 0.00033135 95.62549514 -0.00521386 C103.74580734 -0.00980819 111.86611309 -0.01036362 119.98642617 -0.00777519 C124.81198088 -0.00623982 129.63752546 -0.00594005 134.46307945 -0.00931168 C146.59925576 -0.01639721 158.73422352 0.01969521 170.86994934 0.12698364 C171.6813086 0.13342298 172.49266786 0.13986231 173.32861376 0.14649677 C178.05408986 0.18607833 182.77829532 0.24857414 187.50297606 0.3444674 C188.92555205 0.37104678 190.34825684 0.39162852 191.77101552 0.40529037 C206.84982433 0.56395484 218.92462537 3.79586325 230.08869934 14.19338989 C239.57818749 24.09007623 244.0301626 37.25297448 244.05744934 50.81448364 C244.00997808 52.919043 243.95285949 55.02352232 243.86994934 57.12698364 C245.22733215 56.88721802 245.22733215 56.88721802 246.61213684 56.64260864 C258.59006725 54.7468211 269.74816473 57.49763298 279.86994934 64.12698364 C280.75682434 64.70448364 281.64369934 65.28198364 282.55744934 65.87698364 C291.09729445 74.18602213 295.10374076 84.6839835 295.86576843 96.38562012 C295.8735562 103.35464548 294.52441925 110.07248881 293.24885559 116.89651489 C292.95370305 118.54169431 292.65997179 120.18712925 292.36753845 121.83279419 C291.57370304 126.2767451 290.76004586 130.71685598 289.94266891 135.15652847 C289.07897825 139.86746573 288.23400737 144.58176164 287.38679504 149.29568481 C285.77763418 158.23244502 284.15180481 167.16608397 282.51887608 176.09852886 C280.72900056 185.89124787 278.9529393 195.68645105 277.17801857 205.48188972 C274.47065227 220.42095329 271.75269131 235.35805973 269.02709007 250.29380608 C265.97740627 267.00714163 262.95706865 283.72526113 259.9797821 300.45166016 C259.38306202 303.80333202 258.78504104 307.15476911 258.18659973 310.50613403 C256.50872469 319.90645362 254.83649708 329.30765223 253.18482971 338.71261597 C252.46387056 342.80795147 251.73571193 346.90198554 251.00593567 350.99575806 C250.67271346 352.8746505 250.34264607 354.754106 250.01618958 356.63418579 C247.12590734 373.27207173 243.99896923 391.09879827 229.86994934 402.12698364 C220.73259893 408.04984701 212.74782071 410.58022828 201.86994934 410.12698364 C201.75651184 410.85272583 201.64307434 411.57846802 201.52619934 412.32620239 C199.46827323 421.10913704 193.07218117 428.05037126 185.86994934 433.12698364 C170.7559032 441.69815267 157.04004307 441.1059145 140.60432434 436.89260864 C139.19990154 436.54273444 137.79519887 436.19398203 136.39024353 435.84625244 C132.5900538 434.90220107 128.79407418 433.94214967 124.99869537 432.97896576 C120.97775741 431.96139906 116.9531549 430.95852294 112.92903137 429.9536438 C104.34336383 427.80663828 95.76261925 425.64042427 87.18281555 423.47012329 C81.85836308 422.12346331 76.53273232 420.78150579 71.2068634 419.44046021 C38.07060668 411.09543166 4.94898401 402.69628145 -28.13005066 394.12698364 C-28.10648499 395.63712036 -28.10648499 395.63712036 -28.08244324 397.17776489 C-28.02720514 400.99473732 -27.99336793 404.81167639 -27.96525574 408.62893677 C-27.95037883 410.26571638 -27.93007086 411.90245771 -27.9037323 413.53909302 C-27.55546036 435.77386647 -31.18173232 455.59933832 -46.94255066 472.37698364 C-60.69542168 485.47119226 -77.67708625 488.57535904 -95.92301941 488.33401489 C-108.59541166 487.96535526 -121.78366962 483.49070565 -130.88786316 474.43948364 C-135.58135706 470.20723914 -139.64455272 470.2304591 -145.75505066 470.37698364 C-147.71350087 470.35420718 -149.67187102 470.32296388 -151.63005066 470.28323364 C-152.57364441 470.26647583 -153.51723816 470.24971802 -154.48942566 470.23245239 C-173.6237829 469.46821031 -191.19311964 459.30969655 -204.10661316 445.58010864 C-210.10590544 438.30683537 -214.26797473 430.74019123 -217.13005066 421.81448364 C-217.33791199 421.16922729 -217.54577332 420.52397095 -217.75993347 419.85916138 C-219.1427018 415.12784156 -219.3030684 410.99851444 -219.13005066 406.12698364 C-219.83387878 405.90397583 -220.53770691 405.68096802 -221.26286316 405.45120239 C-224.75686988 403.83748539 -227.25723064 401.56762279 -230.00505066 398.93948364 C-230.53461365 398.43828003 -231.06417664 397.93707642 -231.60978699 397.42068481 C-232.65600294 396.42829348 -233.69979306 395.43333713 -234.7408905 394.43557739 C-235.84704193 393.39357886 -236.99230963 392.39314622 -238.14958191 391.40823364 C-249.05124573 381.80864208 -253.84912915 366.79260762 -257.13005066 353.12698364 C-257.33114441 352.33549927 -257.53223816 351.54401489 -257.73942566 350.72854614 C-259.4037413 339.64420394 -258.66399573 327.98121446 -255.88395691 317.16995239 C-254.19859166 310.36736415 -253.89896295 306.60020267 -256.88005066 300.12698364 C-265.74839916 279.40510514 -266.07405314 255.01432665 -257.88005066 234.00198364 C-251.29120095 219.32770185 -241.98709719 206.90951905 -229.13005066 197.12698364 C-228.47005066 197.12698364 -227.81005066 197.12698364 -227.13005066 197.12698364 C-227.28860535 196.03385864 -227.44716003 194.94073364 -227.61051941 193.81448364 C-230.73508415 168.55157297 -225.91217932 145.93214246 -210.23942566 125.64260864 C-199.71615133 113.09262963 -187.5618778 104.60873717 -172.13005066 99.12698364 C-171.11298035 98.75960083 -171.11298035 98.75960083 -170.07536316 98.38479614 C-166.05382619 97.08003082 -162.33162135 96.95549096 -158.13005066 97.12698364 C-157.8606366 96.25428833 -157.59122253 95.38159302 -157.31364441 94.48245239 C-151.27586834 77.36545688 -137.76087896 66.26589122 -121.94255066 58.43948364 C-102.34792855 50.10486973 -79.65524148 49.07195189 -59.54801941 56.43948364 C-56.70529879 57.60437032 -53.91909128 58.84113296 -51.13005066 60.12698364 C-50.94212952 59.08526001 -50.94212952 59.08526001 -50.75041199 58.02249146 C-43.97923893 21.01288704 -43.97923893 21.01288704 -26.88786316 7.91995239 C-18.46856727 2.44621753 -9.95509495 0.00296972 0 0 Z " fill="#FE7306" transform="translate(495.1300506591797,261.8730163574219)"/>
<path d="M0 0 C1.22935572 -0.00573832 1.22935572 -0.00573832 2.48354691 -0.01159257 C5.22169697 -0.02188693 7.95963594 -0.01793718 10.69779968 -0.01396179 C12.66435439 -0.01831028 14.63090739 -0.02349389 16.59745789 -0.02944946 C21.93433264 -0.04283716 27.27113656 -0.04341829 32.60802484 -0.04088616 C37.06616224 -0.03981611 41.52428533 -0.04470079 45.98241967 -0.04949158 C56.50262885 -0.06058637 67.02280233 -0.06102459 77.54301453 -0.05497742 C88.38797812 -0.04893929 99.23281192 -0.06124466 110.07775337 -0.08254749 C119.39514375 -0.1001753 128.71249286 -0.1061629 138.0298993 -0.10290974 C143.59188152 -0.10109834 149.1537712 -0.10371872 154.7157383 -0.11762428 C159.9483601 -0.13021683 165.18077998 -0.12824491 170.41339874 -0.11521339 C172.33017991 -0.11285104 174.24697536 -0.11557006 176.16374016 -0.12383652 C178.78794072 -0.13433481 181.4114676 -0.12617876 184.03564453 -0.11352539 C184.78741685 -0.12089968 185.53918916 -0.12827396 186.31374246 -0.13587171 C196.27009077 -0.03543402 204.04821764 3.7650615 211.33329773 10.44819641 C216.91128106 16.17426779 219.82686105 23.76592882 219.83972549 31.72579479 C219.84356664 32.61995796 219.84740778 33.51412114 219.85136533 34.43538016 C219.85049885 35.41367248 219.84963236 36.3919648 219.84873962 37.39990234 C219.85171075 38.44235936 219.85468187 39.48481637 219.85774302 40.55886298 C219.86643692 44.06324196 219.86793887 47.5675868 219.86943054 51.07197571 C219.87405824 53.58009921 219.87908284 56.08822202 219.88447571 58.59634399 C219.89760678 65.41880816 219.90408284 72.24126107 219.90848637 79.06373572 C219.91125023 83.32527589 219.91548787 87.5868138 219.91999054 91.84835243 C219.93218289 103.65145952 219.9424819 115.45456479 219.94586563 127.25767803 C219.94619498 128.39063394 219.94619498 128.39063394 219.94653098 129.54647784 C219.94674926 130.30357299 219.94696754 131.06066815 219.94719243 131.84070557 C219.94763589 133.37482687 219.94808246 134.90894816 219.9485321 136.44306946 C219.94886425 137.58453133 219.94886425 137.58453133 219.9492031 138.74905304 C219.95314954 151.07441195 219.97059899 163.39971167 219.99389163 175.72504773 C220.01762264 188.3847491 220.0300683 201.0444208 220.03123355 213.70414478 C220.03214939 220.80987287 220.03787855 227.91552387 220.05605316 235.0212307 C220.07309251 241.70657991 220.07469369 248.39175804 220.06591415 255.07713127 C220.06514328 257.52928306 220.06949308 259.98144267 220.07937241 262.43357468 C220.09208071 265.78474798 220.08622065 269.13540242 220.07579041 272.48657227 C220.08787501 273.93728033 220.08787501 273.93728033 220.10020375 275.41729563 C220.02796822 285.36172068 217.32759672 292.82879806 210.70829773 300.26069641 C204.23552924 306.55852521 196.49825871 308.86843661 187.66946411 308.76863098 C186.37395184 308.77799093 186.37395184 308.77799093 185.05226761 308.78753996 C182.18268756 308.80338699 179.31396678 308.79089848 176.44438171 308.77827454 C174.37723804 308.7836993 172.31009823 308.79082394 170.2429657 308.79951477 C164.64593563 308.81770764 159.04920138 308.81069746 153.45216632 308.79799843 C147.58758943 308.78785126 141.72303739 308.79726875 135.85845947 308.80354309 C126.01221685 308.8108139 116.16609437 308.80124599 106.31987 308.78218079 C94.94366186 308.76040718 83.56774044 308.76746938 72.19153923 308.78948641 C62.41464329 308.80764926 52.63783357 308.81019455 42.86092621 308.79973173 C37.02569986 308.79350249 31.1906082 308.79264575 25.35539055 308.80587769 C19.86986518 308.81744856 14.3847089 308.80938751 8.89922333 308.78630066 C6.88849818 308.78102049 4.87774186 308.78251546 2.86702919 308.79135132 C0.11765213 308.80231754 -2.63054967 308.78853035 -5.37985229 308.76863098 C-6.56717472 308.78201531 -6.56717472 308.78201531 -7.77848345 308.79567003 C-15.32724903 308.6900304 -21.94048895 305.61190974 -27.29170227 300.26069641 C-31.05166432 294.69411844 -34.41030682 289.70873333 -34.42592335 282.84335232 C-34.43038119 281.93437992 -34.43483904 281.02540751 -34.43943197 280.08889049 C-34.4392476 279.08891271 -34.43906324 278.08893493 -34.43887329 277.05865479 C-34.44254998 275.99734 -34.44622667 274.93602522 -34.45001477 273.84254938 C-34.46107209 270.26830385 -34.46489895 266.69408737 -34.46870422 263.11982727 C-34.47496738 260.56421313 -34.48161405 258.0085999 -34.48861694 255.45298767 C-34.50786027 247.770031 -34.51844832 240.08707943 -34.52734473 232.4041048 C-34.53172872 228.7847177 -34.53709532 225.16533206 -34.5423336 221.54594612 C-34.55934732 209.51126757 -34.57384028 197.47658994 -34.58108234 185.44190121 C-34.5829922 182.31875546 -34.58491254 179.19560971 -34.58686829 176.07246399 C-34.58735203 175.29623314 -34.58783577 174.5200023 -34.58833417 173.7202493 C-34.59662991 161.15298934 -34.62195846 148.58582471 -34.65444896 136.01860636 C-34.68754571 123.11145954 -34.70553355 110.20436112 -34.70872658 97.29717165 C-34.71088949 90.05220001 -34.71960564 82.80736729 -34.74518776 75.56243706 C-34.769208 68.74410802 -34.772704 61.92603246 -34.76242638 55.10766983 C-34.76193074 52.60755775 -34.7682593 50.1074334 -34.78198242 47.60735893 C-34.79969599 44.18848181 -34.79259672 40.77050166 -34.77944946 37.35162354 C-34.79041871 36.3672608 -34.80138795 35.38289807 -34.8126896 34.36870617 C-34.724359 24.82395445 -31.87194262 17.06491043 -25.28388977 10.08100891 C-17.65274551 3.10823788 -10.38339733 -0.05173903 0 0 Z " fill="#FEFEFD" transform="translate(501.2917022705078,312.7393035888672)"/>
<path d="M0 0 C0.61617187 0.515625 1.23234375 1.03125 1.8671875 1.5625 C2.90007212 2.42387636 2.90007212 2.42387636 3.95382309 3.30265427 C6.37233493 6.15912198 6.36168017 7.5770167 6.34820557 11.28253174 C6.35370422 12.44918365 6.35920288 13.61583557 6.36486816 14.81784058 C6.34329651 16.7318718 6.34329651 16.7318718 6.32128906 18.68457031 C6.32016051 20.0447486 6.3207946 21.40492933 6.32305908 22.7651062 C6.32420688 26.45504791 6.30068763 30.14446965 6.27276325 33.8342905 C6.24776017 37.69131904 6.24540847 41.54835947 6.24066162 45.40545654 C6.22822859 52.70821077 6.19540269 60.01072551 6.15526366 67.31337428 C6.11055603 75.62766436 6.08856147 83.94196587 6.06848192 92.25634623 C6.02667023 109.35853602 5.95631196 126.46049269 5.8671875 143.5625 C2.44529336 141.31472845 -0.69871447 139.2373403 -3.5078125 136.25 C-5.83634723 133.84553479 -8.20349226 131.60008625 -10.7578125 129.4375 C-14.67516215 126.05994263 -18.34620469 122.46202662 -22.0078125 118.8125 C-22.57967285 118.24515137 -23.1515332 117.67780273 -23.74072266 117.09326172 C-28.98309236 111.83209654 -30.46942699 108.73370541 -30.609375 101.421875 C-30.62551849 100.6214679 -30.64166199 99.82106079 -30.65829468 98.99639893 C-30.68594344 97.30188619 -30.70740262 95.60726283 -30.72314453 93.91259766 C-30.74616547 92.18602694 -30.78704472 90.4595976 -30.84619141 88.73388672 C-31.3390005 74.35432312 -31.3390005 74.35432312 -28.39550781 69.98168945 C-26.25 68.16015625 -26.25 68.16015625 -24.10498047 66.85571289 C-20.45546262 64.46260865 -19.20581103 60.65330688 -18.1328125 56.5625 C-17.02539201 49.34119554 -18.43823338 42.85415091 -22.1328125 36.5625 C-26.3965741 31.54941396 -31.88418418 28.20840633 -38.4453125 27.2109375 C-45.86387786 26.77046018 -52.14636659 29.09104949 -57.765625 33.984375 C-62.98215115 39.79439814 -64.79088971 46.07999116 -64.5390625 53.71875 C-63.84402643 58.58400251 -62.16869059 62.69808018 -59.1328125 66.5625 C-57.77761206 67.40364246 -56.41892244 68.23917494 -55.05786133 69.07080078 C-52.62329199 70.87901567 -51.34272259 71.87839746 -50.44564819 74.80198669 C-50.25743262 77.50769737 -50.31058649 80.10807257 -50.45703125 82.81640625 C-50.47546585 83.79488022 -50.49390045 84.77335419 -50.51289368 85.78147888 C-50.5773409 88.89833439 -50.6958286 92.01001319 -50.8203125 95.125 C-50.91823737 98.24295674 -51.00453284 101.36051515 -51.07417297 104.47923279 C-51.12018345 106.41633267 -51.18390307 108.35311371 -51.26750183 110.28895569 C-51.47144537 117.1882242 -50.2258937 120.286468 -45.49609375 125.4296875 C-44.48505736 126.43823161 -43.46786157 127.44063029 -42.4453125 128.4375 C-41.90495361 128.97068848 -41.36459473 129.50387695 -40.80786133 130.05322266 C-37.45479211 133.33874011 -34.02267365 136.49049302 -30.4453125 139.53125 C-27.15921362 142.41768821 -24.00124658 145.43613478 -20.8203125 148.4375 C-14.79542141 154.10433615 -8.60693007 159.41163957 -2.1328125 164.5625 C-0.9421437 165.5587249 0.24595916 166.55803822 1.4296875 167.5625 C3.68527351 169.56388513 3.68527351 169.56388513 5.8671875 170.5625 C5.9607347 193.9719511 6.03121761 217.38137408 6.07443619 240.79097462 C6.09503898 251.66108775 6.12311595 262.53108458 6.16894531 273.40112305 C6.20888295 282.87827007 6.2346369 292.35533283 6.24354148 301.83256167 C6.24874449 306.84814971 6.26092584 311.86349674 6.29010773 316.87900734 C6.31738632 321.60597884 6.32560745 326.33261149 6.31961823 331.05965424 C6.32071292 332.78855166 6.32859237 334.51746117 6.3440094 336.24629021 C6.46138345 350.09506474 4.79813562 361.18014515 -5.1328125 371.5625 C-14.53349761 380.38656316 -23.40526895 383.17197122 -36.08666992 383.03540039 C-46.31538475 382.66203054 -54.59100464 379.59299885 -62.1328125 372.5625 C-63.99054171 370.52204333 -65.77046594 368.45320589 -67.4921875 366.296875 C-69.29482807 364.3912264 -70.67342537 363.46067006 -73.1328125 362.5625 C-76.69295616 362.84505108 -80.0032501 363.31065081 -83.48046875 364.0859375 C-96.8491682 366.48797186 -109.61287266 363.52668145 -120.92578125 356.1796875 C-128.15204404 350.8846914 -132.70660903 344.29184039 -137.1328125 336.5625 C-137.54789062 335.84320312 -137.96296875 335.12390625 -138.390625 334.3828125 C-141.37987861 328.51501838 -141.9504693 322.48651782 -142.54296875 316.015625 C-143.15554499 312.42941705 -143.91588401 310.4230529 -146.1328125 307.5625 C-148.02449873 306.23783752 -148.02449873 306.23783752 -150.1953125 305.3125 C-163.42792021 298.42724071 -173.4852144 285.66643316 -178.10546875 271.6015625 C-181.39688503 259.20134302 -182.32829292 244.17134551 -176.04296875 232.546875 C-175.68074219 231.95390625 -175.31851562 231.3609375 -174.9453125 230.75 C-172.86533489 227.09210835 -172.30919749 225.68057507 -173.1328125 221.5625 C-173.98595033 220.22185484 -174.88895519 218.91253531 -175.8203125 217.625 C-185.38918845 204.24671372 -186.66375871 186.3846258 -184.4453125 170.5625 C-182.23192214 158.97654634 -177.64830971 149.61028305 -170.1328125 140.5625 C-169.62363281 139.92828125 -169.11445313 139.2940625 -168.58984375 138.640625 C-163.78270242 133.25267225 -157.45915265 129.94141217 -151.265625 126.3828125 C-148.35602131 124.87109014 -148.35602131 124.87109014 -147.1328125 123.5625 C-146.90708633 119.27370286 -146.96894321 116.15644522 -148.12109375 111.98046875 C-152.41072464 95.49824698 -149.41403466 76.68901896 -140.88671875 62.15625 C-132.21582079 49.33336304 -120.86466255 41.69174867 -106.25390625 36.953125 C-102.39365731 36.24221359 -98.45104219 36.23798939 -94.53320312 36.1328125 C-91.7171266 35.99858045 -89.61668419 35.88574624 -87.23828125 34.296875 C-85.93600619 32.25372967 -85.5039993 30.55817026 -85.0078125 28.1875 C-81.49369499 15.55517233 -71.44504613 4.8114516 -60.3828125 -1.6875 C-42.2652696 -11.71153098 -17.31885815 -12.39949377 0 0 Z " fill="#FEFEFD" transform="translate(438.1328125,345.4375)"/>
<path d="M0 0 C5.43186099 3.17520058 10.42899941 8.5874159 12.6875 14.5 C13.55876118 22.63514799 13.53737334 30.62583171 8.6875 37.5 C6.54395061 39.79631905 4.35271504 41.82603489 1.6875 43.5 C1.0275 43.5 0.3675 43.5 -0.3125 43.5 C-1.99329785 61.68503007 -1.99329785 61.68503007 4.2109375 78.10546875 C7.48439922 81.75573995 11.04719077 85.02118757 14.89404297 88.05908203 C16.6875 89.5 16.6875 89.5 17.95019531 91.16381836 C20.74330143 93.3120294 23.86199907 92.90030785 27.2421875 92.87109375 C28.75911681 92.88847896 30.27604384 92.90606331 31.79296875 92.92382812 C34.17826582 92.93389163 36.56341307 92.93749935 38.94873047 92.93579102 C41.25533402 92.93937047 43.56078905 92.96674894 45.8671875 92.99609375 C46.57567841 92.98791122 47.28416931 92.9797287 48.01412964 92.97129822 C52.84415995 93.04357496 55.29511175 94.07526145 58.6875 97.5 C60.01535399 100.15570798 59.85885634 102.22574084 59.91210938 105.19970703 C59.94588684 106.99264694 59.94588684 106.99264694 59.98034668 108.82180786 C60.05126755 114.30563218 60.10907114 119.78929105 60.14746094 125.2734375 C60.16969057 128.16434493 60.21138502 131.05395194 60.27050781 133.94433594 C60.34189756 137.44165187 60.37833618 140.93774958 60.39057922 144.43575668 C60.40594078 146.40565941 60.4557323 148.37519754 60.50622559 150.34451294 C60.49284506 156.36410154 60.3976902 160.48388087 56.36132812 165.15966797 C55.1639554 166.30235088 53.93950394 167.41745124 52.6875 168.5 C51.5149227 169.66072593 50.34743005 170.82663539 49.1875 172 C48.60355469 172.57363281 48.01960938 173.14726563 47.41796875 173.73828125 C45.07245734 176.12614952 42.93462471 178.66415603 40.796875 181.23828125 C39.10447151 183.05291388 37.49965662 184.50286691 35.578125 186.04296875 C29.49271237 190.88054405 29.49271237 190.88054405 26.23046875 197.67089844 C25.99856429 201.60830492 26.30014614 205.47424952 26.57421875 209.40234375 C26.83952805 213.81323507 25.97873697 216.55620612 23.1796875 220.02734375 C22.68726563 220.51332031 22.19484375 220.99929688 21.6875 221.5 C21.19507813 221.99628906 20.70265625 222.49257813 20.1953125 223.00390625 C14.32663238 228.34045217 8.71728002 229.01383086 1.046875 228.875 C-5.82351071 228.10807322 -11.14986759 225.11836647 -15.8125 220.0625 C-20.78757551 213.48528152 -21.13785849 206.53137297 -20.3125 198.5 C-18.51826558 191.78865478 -13.86215909 187.41740641 -8.3125 183.5 C-5.27523069 181.98136534 -2.93668295 181.51856635 0.4453125 181.41796875 C1.47398437 181.38316406 2.50265625 181.34835937 3.5625 181.3125 C5.01269531 181.32216797 5.01269531 181.32216797 6.4921875 181.33203125 C10.54210665 180.27746795 12.4634787 178.35470162 15.46582031 175.51879883 C17.79900646 173.39867616 20.24885014 171.61528535 22.80859375 169.77734375 C31.22080819 163.17240462 37.69011382 157.22419766 39.00135803 146.33204651 C39.81535865 136.06660431 39.41736954 125.75924843 38.6875 115.5 C37.97207031 115.53665771 37.25664062 115.57331543 36.51953125 115.61108398 C33.24263461 115.75760111 29.96642791 115.84794177 26.6875 115.9375 C25.56214844 115.99615234 24.43679688 116.05480469 23.27734375 116.11523438 C17.60668492 116.23130049 13.68891964 116.18754697 9.28125 112.37890625 C8.05682903 111.11100806 6.85760833 109.81818778 5.6875 108.5 C4.57763777 107.40145965 3.46323171 106.30748585 2.34375 105.21875 C1.28964222 104.14782222 0.23756854 103.07488864 -0.8125 102 C-4.35651428 98.40637258 -7.897897 94.89300293 -11.75 91.625 C-15.80724086 88.17806444 -19.90782153 84.30935695 -22.3125 79.5 C-22.32912063 76.79849443 -22.2852682 74.12778592 -22.19140625 71.4296875 C-22.16779526 70.63345978 -22.14418427 69.83723206 -22.11985779 69.01687622 C-22.04317789 66.46940471 -21.95917239 63.9222339 -21.875 61.375 C-21.82178363 59.64975438 -21.7690432 57.92449402 -21.71679688 56.19921875 C-21.58755693 51.96595478 -21.45174581 47.73294618 -21.3125 43.5 C-22.10180908 43.20649658 -22.89111816 42.91299316 -23.7043457 42.6105957 C-26.64160039 41.35986355 -27.66729122 40.25722303 -29.5 37.6875 C-29.98855469 37.02105469 -30.47710937 36.35460937 -30.98046875 35.66796875 C-34.79168513 29.46496261 -35.15706583 23.63880383 -34.3125 16.5 C-32.08684668 9.09840873 -28.02200784 4.26139076 -21.3125 0.5 C-14.7667476 -2.60682193 -6.69930992 -2.95711727 0 0 Z " fill="#FE7205" transform="translate(348.3125,441.5)"/>
<path d="M0 0 C9.90131178 6.42200467 17.08687127 14.97423879 20.234375 26.44921875 C21.47492644 38.69803187 19.93929283 48.99646479 11.984375 58.82421875 C8.19885357 62.77397105 3.99275139 65.77419454 -0.765625 68.44921875 C-1.66861328 68.96162109 -1.66861328 68.96162109 -2.58984375 69.484375 C-9.81507586 72.85406026 -19.03536023 72.58679601 -26.640625 70.7578125 C-29.15066126 69.82047083 -31.42195279 68.74588963 -33.765625 67.44921875 C-34.95285156 66.79566406 -34.95285156 66.79566406 -36.1640625 66.12890625 C-45.76816954 60.28986443 -50.1781151 52.0570017 -53.3515625 41.5 C-55.43083276 31.20172747 -52.96788466 22.19120159 -47.953125 13.19921875 C-36.61659844 -1.05241464 -17.52098942 -8.6094517 0 0 Z " fill="#FE7305" transform="translate(560.765625,371.55078125)"/>
<path d="M0 0 C0.66071979 -0.00523668 1.32143957 -0.01047336 2.00218117 -0.01586872 C4.21457904 -0.03086203 6.4267455 -0.03157371 8.63919067 -0.03224182 C10.22608836 -0.03986373 11.81298235 -0.04829128 13.39987183 -0.0574646 C17.70982485 -0.07941247 22.01970693 -0.08820879 26.32970953 -0.09329104 C29.02267263 -0.09693405 31.71561714 -0.10317379 34.40857315 -0.11029243 C43.80413886 -0.13478721 53.19964935 -0.14783904 62.59524536 -0.15138245 C71.35222387 -0.15501852 80.10885207 -0.18491888 88.86572349 -0.22678703 C96.3851685 -0.26147808 103.90449734 -0.27693067 111.42402184 -0.27762848 C115.91461156 -0.27842166 120.40484439 -0.28717876 124.89535141 -0.31562614 C129.11933865 -0.34178691 133.34267258 -0.34402349 137.5667038 -0.3279705 C139.11548155 -0.32615445 140.66429671 -0.33286105 142.21299362 -0.34878922 C155.37596869 -0.47589791 155.37596869 -0.47589791 159.3147583 2.68661499 C162.24193699 6.30292672 162.74495234 8.47216783 162.70217896 13.16868591 C162.23166761 16.55009414 160.54661493 18.69669603 158.40921021 21.27415466 C155.55640646 22.70055654 153.12888185 22.41334246 149.93830872 22.42805481 C148.93035798 22.43462819 148.93035798 22.43462819 147.90204459 22.44133437 C145.63970053 22.45473955 143.37739543 22.46090504 141.11502075 22.46702576 C139.49724144 22.47492533 137.8794639 22.48319419 136.26168823 22.49180603 C130.93978563 22.51804134 125.6178751 22.53333442 120.29592896 22.54759216 C118.46532498 22.55295108 116.63472107 22.55832859 114.8041172 22.56372452 C107.19075929 22.58535479 99.57740351 22.6040925 91.96402264 22.61534691 C81.04519283 22.63159262 70.12671854 22.66478368 59.20802277 22.72174776 C51.53493162 22.76041744 43.86193567 22.77997602 36.18874961 22.78526747 C31.60369071 22.78892482 27.01901084 22.80098652 22.43405724 22.83337021 C18.12066242 22.86339902 13.807877 22.86978146 9.49440002 22.85798645 C7.91133162 22.85776528 6.32823537 22.86610615 4.74526405 22.88364029 C2.58312766 22.90628595 0.42320978 22.898062 -1.73893738 22.88215637 C-2.94849751 22.88546652 -4.15805765 22.88877666 -5.40427113 22.89218712 C-9.50208678 22.09740657 -10.97345719 20.44670236 -13.59078979 17.27415466 C-15.19385903 14.06801619 -15.07819441 10.75275469 -14.59078979 7.27415466 C-10.82025509 1.07970479 -6.99546072 0.02749615 0 0 Z " fill="#FE7105" transform="translate(520.5907897949219,529.7258453369141)"/>
<path d="M0 0 C0.67282158 -0.00523668 1.34564317 -0.01047336 2.03885329 -0.01586872 C4.29814825 -0.03089592 6.55721729 -0.03157446 8.81655884 -0.03224182 C10.43448775 -0.03986148 12.05241303 -0.04828864 13.67033386 -0.0574646 C18.06911893 -0.07943533 22.46783448 -0.08821192 26.86666822 -0.09329104 C29.61405865 -0.0969315 32.36143078 -0.10316993 35.10881424 -0.11029243 C44.69125419 -0.13479564 54.27363994 -0.14784076 63.85610962 -0.15138245 C72.79201583 -0.15501867 81.72757876 -0.18491789 90.66338003 -0.22678703 C98.332257 -0.26146183 106.00102006 -0.2769304 113.66997492 -0.27762848 C118.25164751 -0.27842225 122.83297054 -0.28720621 127.41456223 -0.31562614 C131.72388988 -0.34175891 136.03257699 -0.34403916 140.34194756 -0.3279705 C141.92339535 -0.32615218 143.50487957 -0.33288137 145.0862484 -0.34878922 C147.24616677 -0.36919203 149.40383164 -0.35873632 151.5637207 -0.34057617 C152.77198202 -0.3425875 153.98024334 -0.34459883 155.22511864 -0.3466711 C159.31926154 0.45168589 160.79267649 2.10415943 163.40884399 5.27415466 C164.94099287 8.33845242 164.63822947 10.89071886 164.40884399 14.27415466 C162.58416928 18.49971716 160.49375738 20.2594347 156.40884399 22.27415466 C153.28035069 22.65726471 153.28035069 22.65726471 149.69779968 22.66856384 C148.70543837 22.6777005 148.70543837 22.6777005 147.69302934 22.68702173 C145.48362277 22.70362632 143.27479412 22.69887983 141.06533813 22.69407654 C139.47829084 22.70141834 137.89124889 22.7100049 136.30421448 22.71974182 C131.99841258 22.74195402 127.69280206 22.74488869 123.38695073 22.74299431 C119.79097814 22.7428746 116.1950461 22.75143871 112.59908479 22.75977182 C104.11515213 22.77900453 95.63131787 22.78189007 87.14736938 22.77513123 C78.397738 22.76848898 69.64852802 22.79136236 60.89898211 22.82844496 C53.38375069 22.85913946 45.86865487 22.87050231 38.35336202 22.86660814 C33.86615806 22.86454052 29.37928209 22.87002189 24.89213753 22.89450073 C20.67221659 22.9167616 16.45298107 22.914896 12.23305702 22.89457321 C10.68590004 22.89116204 9.13869698 22.89625702 7.59160233 22.91055679 C-5.5532039 23.02365493 -5.5532039 23.02365493 -9.49571228 19.92320251 C-12.79134458 15.75688321 -12.95023908 12.48085918 -12.59115601 7.27415466 C-9.69928778 1.07729418 -6.60174443 0.02542549 0 0 Z " fill="#FE7105" transform="translate(518.5911560058594,484.72584533691406)"/>
<path d="M0 0 C6.19558567 3.53439451 10.37207352 8.42441389 12.328125 15.328125 C13.43481173 23.39823387 11.98057067 29.63142289 7.328125 36.328125 C2.62620211 41.73761881 -3.00111948 44.7159386 -10.0859375 45.64453125 C-17.69686021 46.00976129 -23.13342389 43.52982791 -29.484375 39.578125 C-35.43739315 33.45502062 -36.29114916 27.44080938 -36.21459961 19.19897461 C-35.95191683 13.36165577 -34.71420748 9.51938551 -30.671875 5.328125 C-30.20265625 4.84085938 -29.7334375 4.35359375 -29.25 3.8515625 C-20.60110198 -4.09984375 -10.34489074 -4.61941662 0 0 Z " fill="#FE7206" transform="translate(318.671875,556.671875)"/>
<path d="M0 0 C0.73397003 -0.0087616 1.46794006 -0.01752319 2.22415161 -0.02655029 C4.64092814 -0.04848742 7.05586241 -0.03401381 9.47265625 -0.01708984 C11.15747426 -0.02045966 12.8422899 -0.02531367 14.52709961 -0.03158569 C18.05443517 -0.03894924 21.58113671 -0.0282688 25.10839844 -0.00488281 C29.62479619 0.02360539 34.13970837 0.00719854 38.65605164 -0.02274513 C42.13402454 -0.04083254 45.61164652 -0.03505363 49.08963013 -0.02210617 C50.75456926 -0.01877611 52.41954049 -0.02284521 54.08444214 -0.03450394 C56.41392108 -0.04723743 58.74101108 -0.02780549 61.0703125 0 C61.75513702 -0.01012115 62.43996155 -0.02024231 63.14553833 -0.03067017 C66.96908419 0.05367763 68.45682321 0.58181942 71.43920898 3.06240845 C74.34588367 6.64670061 74.71444883 8.78067349 75.05859375 13.38134766 C74.24667731 16.89561283 72.24704682 19.36760461 69.53515625 21.64697266 C66.75668837 22.24923106 64.83881949 22.4534035 62.0703125 22.39160156 C61.33634247 22.39890289 60.60237244 22.40620422 59.84616089 22.41372681 C57.42903982 22.42988998 55.01462178 22.40276953 52.59765625 22.37353516 C50.91284182 22.3724973 49.22802494 22.37353522 47.54321289 22.3765564 C44.01574445 22.37637717 40.48919232 22.35556754 36.96191406 22.31933594 C32.44563872 22.27395953 27.93070144 22.27287471 23.41426086 22.28637123 C19.93628087 22.29306172 16.45860469 22.27977067 12.98068237 22.26011276 C11.31576122 22.25242712 9.65080622 22.25010474 7.98587036 22.25328445 C5.6565948 22.25402825 3.32901943 22.22872488 1 22.19628906 C-0.02723679 22.20372131 -0.02723679 22.20372131 -1.07522583 22.21130371 C-5.78577514 22.10686896 -8.12273783 20.9191546 -11.46484375 17.64697266 C-13.92271141 14.51877745 -13.55807051 11.61997415 -13.2421875 7.74462891 C-10.88092541 1.37278096 -6.24521243 -0.09229921 0 0 Z " fill="#FE7105" transform="translate(608.46484375,375.35302734375)"/>
<path d="M0 0 C1.47689552 -0.01418472 1.47689552 -0.01418472 2.98362732 -0.02865601 C4.56966515 -0.01954697 4.56966515 -0.01954697 6.18774414 -0.01025391 C7.82617027 -0.01455917 7.82617027 -0.01455917 9.49769592 -0.01895142 C11.80673745 -0.02099209 14.11579627 -0.01546206 16.42480469 -0.00292969 C19.95620492 0.01310777 23.4864579 -0.00277109 27.01782227 -0.02197266 C29.26196541 -0.01998992 31.50610785 -0.01614563 33.75024414 -0.01025391 C34.80557846 -0.0163266 35.86091278 -0.02239929 36.94822693 -0.02865601 C46.16222395 0.05955667 46.16222395 0.05955667 50.03540039 3.38818359 C52.90350158 7.49912863 53.51054949 10.66385406 52.68774414 15.48974609 C51.38626887 19.27727293 48.5330896 21.63933899 45.03540039 23.38818359 C43.49490368 23.4982207 41.94983518 23.54725673 40.40551758 23.56518555 C39.44401794 23.57802078 38.48251831 23.59085602 37.49188232 23.6040802 C35.92787689 23.6151606 35.92787689 23.6151606 34.33227539 23.62646484 C33.26172913 23.63453659 32.19118286 23.64260834 31.0881958 23.65092468 C28.81849796 23.66477337 26.54877922 23.675492 24.27905273 23.68334961 C20.81331689 23.70054508 17.34853906 23.74442323 13.88305664 23.78857422 C11.67863658 23.79870251 9.4742084 23.80721818 7.26977539 23.81396484 C5.71791534 23.84022697 5.71791534 23.84022697 4.13470459 23.86701965 C-1.89251855 23.84891792 -5.37283339 23.407625 -9.96459961 19.38818359 C-12.55104425 15.97877929 -12.32963076 12.5495387 -11.96459961 8.38818359 C-9.4236968 2.7981974 -6.19551108 0.01710939 0 0 Z " fill="#FE7306" transform="translate(606.964599609375,414.61181640625)"/>
<path d="M0 0 C0.99 0.33 1.98 0.66 3 1 C1.7934375 2.0828125 1.7934375 2.0828125 0.5625 3.1875 C-2.02292072 6.02515689 -2.68042813 7.27166147 -3 11 C-3.66 11 -4.32 11 -5 11 C-4.50769231 4.6 -4.50769231 4.6 -1.9375 1.5625 C-0.9784375 0.7890625 -0.9784375 0.7890625 0 0 Z " fill="#FD660C" transform="translate(600,416)"/>
</svg>
